<svg xmlns="http://www.w3.org/2000/svg" xmlns:xlink="http://www.w3.org/1999/xlink" width="50" height="50" viewBox="0 0 50 50">
  <defs>
    <filter id="Ellipse_967" x="0" y="0" width="50" height="50" filterUnits="userSpaceOnUse">
      <feOffset input="SourceAlpha"/>
      <feGaussianBlur stdDeviation="3" result="blur"/>
      <feFlood flood-opacity="0.078"/>
      <feComposite operator="in" in2="blur"/>
      <feComposite in="SourceGraphic"/>
    </filter>
  </defs>
  <g id="Group_7657" data-name="Group 7657" transform="translate(4066 -12334)">
    <g transform="matrix(1, 0, 0, 1, -4066, 12334)" filter="url(#Ellipse_967)">
      <circle id="Ellipse_967-2" data-name="Ellipse 967" cx="16" cy="16" r="16" transform="translate(9 9)" fill="#2e2e2e"/>
    </g>
    <path id="Icon_awesome-lock" data-name="Icon awesome-lock" d="M10.7,6.217h-.642v-2A4.15,4.15,0,0,0,5.993,0,4.15,4.15,0,0,0,1.926,4.219v2H1.284A1.309,1.309,0,0,0,0,7.549v5.329A1.309,1.309,0,0,0,1.284,14.21H10.7a1.309,1.309,0,0,0,1.284-1.332V7.549A1.309,1.309,0,0,0,10.7,6.217Zm-2.782,0H4.066v-2a1.965,1.965,0,0,1,1.926-2,1.965,1.965,0,0,1,1.926,2Z" transform="translate(-4046.992 12351.422)" fill="#fff"/>
  </g>
</svg>
